<svg width="1440" height="999" viewBox="0 0 1440 999" fill="none" xmlns="http://www.w3.org/2000/svg">
<path d="M769 478C769 347.661 884.99 242 1028.07 242C1171.15 242 1287.14 347.661 1287.14 478V990H769V478Z" fill="#D7FCFF"/>
<path d="M662.571 303.347L662.064 302.486L662.571 303.347ZM653.286 379.745L653.103 380.728L653.286 379.745ZM569 361.61L577.32 353.603L566.225 350.401L569 361.61ZM799.768 367.915C786.15 351.589 762.964 328.722 737.63 313.173C712.363 297.665 684.581 289.216 662.064 302.486L663.079 304.209C684.562 291.549 711.422 299.434 736.584 314.878C761.679 330.28 784.707 352.981 798.232 369.196L799.768 367.915ZM662.064 302.486C634.362 318.81 626.176 337.211 628.038 352.282C629.886 367.235 641.63 378.591 653.103 380.728L653.469 378.762C642.88 376.789 631.767 366.152 630.023 352.036C628.294 338.038 635.78 320.296 663.079 304.209L662.064 302.486ZM653.103 380.728C661.452 382.283 668.98 377.06 674.537 368.882C680.118 360.669 683.914 349.222 684.818 337.62C685.722 326.024 683.745 314.138 677.617 305.118C671.454 296.046 661.174 290 645.786 290V292C660.576 292 670.207 297.77 675.963 306.242C681.755 314.767 683.706 326.152 682.824 337.465C681.943 348.773 678.24 359.874 672.883 367.758C667.502 375.677 660.655 380.1 653.469 378.762L653.103 380.728ZM645.786 290C602.206 290 579.012 327.736 570.549 352.637L572.443 353.281C580.834 328.59 603.559 292 645.786 292V290Z" fill="#25A4AD"/>
<path d="M790.357 478C790.357 347.98 906.079 242.5 1048.93 242.5C1191.78 242.5 1307.5 347.98 1307.5 478V998.5H790.357V478Z" stroke="#25A4AD"/>
<rect y="900" width="31" height="31" fill="#F3F7FB"/>
<path d="M31 870.5C31 854.208 44.2076 841 60.5 841C76.7924 841 90 854.208 90 870.5C90 886.792 76.7924 900 60.5 900H31V870.5Z" fill="#45EC9C"/>
<rect x="741" y="750" width="47" height="47" fill="#CCFBFF"/>
<rect x="683" y="692" width="58" height="58" fill="#CCFBFF"/>
<path d="M547 189.5C547 203.031 557.969 214 571.5 214C585.031 214 596 203.031 596 189.5C596 175.969 585.031 165 571.5 165H547V189.5Z" fill="#FFC229"/>
<path d="M1456 7.5C1456 -6.03098 1445.03 -17 1431.5 -17C1417.97 -17 1407 -6.03098 1407 7.5C1407 21.031 1417.97 32 1431.5 32H1456V7.5Z" fill="#FFC229"/>
<path d="M1339 819.5C1339 835.792 1352.21 849 1368.5 849C1384.79 849 1398 835.792 1398 819.5C1398 803.208 1384.79 790 1368.5 790H1339V819.5Z" fill="#DEBBAF"/>
<rect x="654" y="467" width="29" height="29" fill="#D4CCC9"/>
<rect y="451" width="37" height="68" fill="#D7FCFF"/>
</svg>
